<?xml version="1.0" encoding="utf-8"?>
<svg xmlns="http://www.w3.org/2000/svg"
	xmlns:xlink="http://www.w3.org/1999/xlink"
	width="43px" height="42px" viewBox="0 0 39 42">
<path fillRule="evenodd" d="M 38.08 31C 38.07 31.92 37.32 32.65 36.41 32.65 36.41 32.65 36.4 32.65 36.4 32.65 35.48 32.65 34.74 31.89 34.75 30.97 34.75 30.97 34.83 19.73 34.83 19.73 34.86 15.59 33.29 11.69 30.39 8.75 27.49 5.8 23.62 4.16 19.5 4.13 19.46 4.13 19.42 4.13 19.38 4.13 10.91 4.13 3.99 11 3.92 19.49 3.92 19.49 3.84 30.74 3.84 30.74 3.83 31.65 3.09 32.39 2.17 32.39 2.17 32.39 2.16 32.39 2.16 32.39 1.24 32.38 0.5 31.63 0.51 30.71 0.51 30.71 0.59 19.47 0.59 19.47 0.67 9.09 9.18 0.7 19.52 0.79 24.54 0.83 29.24 2.83 32.76 6.41 36.28 9.99 38.2 14.73 38.16 19.76 38.16 19.76 38.08 31 38.08 31ZM 13.58 19.78C 13.58 19.78 13.69 19.78 13.69 19.78 14.08 19.79 14.45 19.94 14.72 20.22 14.99 20.5 15.14 20.87 15.14 21.26 15.14 21.26 14.99 39.96 14.99 39.96 14.99 40.76 14.33 41.41 13.54 41.41 13.53 41.41 13.53 41.41 13.52 41.41 9.84 41.38 8.03 39.93 7.16 38.71 6.18 37.34 6.16 35.95 6.16 35.8 6.16 35.8 6.24 25.28 6.24 25.28 6.26 23.38 7.81 19.78 13.58 19.78ZM 12.09 38.37C 12.09 38.37 12.21 22.8 12.21 22.8 9.41 23.22 9.17 24.95 9.16 25.33 9.16 25.33 9.08 35.82 9.08 35.82 9.09 36.19 9.3 37.91 12.09 38.37ZM 25.37 19.87C 25.38 19.87 25.38 19.87 25.39 19.87 29.07 19.9 30.88 21.36 31.75 22.57 32.73 23.95 32.75 25.33 32.75 25.48 32.75 25.48 32.67 36 32.67 36 32.65 37.91 31.1 41.5 25.33 41.5 25.33 41.5 25.33 41.5 25.33 41.5 25.33 41.5 25.22 41.5 25.22 41.5 24.42 41.49 23.77 40.83 23.77 40.03 23.77 40.03 23.92 21.32 23.92 21.32 23.92 20.52 24.58 19.87 25.37 19.87ZM 29.75 35.96C 29.75 35.96 29.83 25.46 29.83 25.46 29.82 25.1 29.61 23.38 26.82 22.91 26.82 22.91 26.7 38.49 26.7 38.49 29.5 38.06 29.74 36.34 29.75 35.96Z" fill="rgb(79,195,175)"/></svg>
