<?xml version="1.0" encoding="utf-8"?>
<svg xmlns="http://www.w3.org/2000/svg"
	xmlns:xlink="http://www.w3.org/1999/xlink"
	width="43px" height="42px" viewBox="0 0 38 35">
<path fillRule="evenodd" d="M 34.88 19.25C 27.13 27.89 20.28 34.02 20.21 34.08 19.89 34.36 19.5 34.5 19.1 34.5 18.7 34.5 18.31 34.36 17.99 34.08 17.92 34.02 11.07 27.89 3.32 19.25 0.11 15.69-0.7 11.09 1.14 6.97 2.92 2.98 6.71 0.4 10.78 0.4 14.91 0.4 17.56 2.23 19.1 4.19 20.64 2.23 23.29 0.4 27.42 0.4 31.49 0.4 35.28 2.98 37.06 6.97 38.9 11.09 38.09 15.69 34.88 19.25ZM 34.01 8.33C 32.78 5.58 30.13 3.73 27.42 3.73 21.87 3.73 20.76 7.99 20.72 8.17 20.54 8.91 19.87 9.44 19.1 9.44 18.33 9.44 17.66 8.91 17.48 8.17 17.36 7.72 16.16 3.73 10.78 3.73 8.07 3.73 5.42 5.58 4.19 8.33 2.88 11.26 3.47 14.43 5.8 17.03 11.6 23.49 16.88 28.52 19.1 30.58 21.32 28.52 26.6 23.49 32.4 17.03 34.73 14.43 35.32 11.26 34.01 8.33ZM 31.06 13.66C 31.02 13.66 30.98 13.66 30.95 13.66 30.08 13.66 29.34 12.99 29.28 12.11 29.09 9.18 27.04 8.86 26.95 8.85 26.04 8.73 25.4 7.89 25.52 6.98 25.65 6.06 26.48 5.42 27.4 5.55 29.07 5.78 32.31 7.39 32.61 11.89 32.67 12.81 31.98 13.6 31.06 13.66ZM 28.93 14.39C 29.37 14.39 29.8 14.56 30.11 14.87 30.42 15.18 30.6 15.61 30.6 16.05 30.6 16.49 30.42 16.92 30.11 17.23 29.8 17.54 29.37 17.72 28.93 17.72 28.49 17.72 28.06 17.54 27.75 17.23 27.44 16.92 27.26 16.49 27.26 16.05 27.26 15.61 27.44 15.18 27.75 14.87 28.06 14.56 28.49 14.39 28.93 14.39Z" fill="rgb(79,195,175)"/></svg>
